<mxfile host="app.diagrams.net" modified="2022-12-22T14:22:44.904Z" agent="5.0 (Windows NT 10.0; Win64; x64) AppleWebKit/537.36 (KHTML, like Gecko) Chrome/108.0.0.0 Whale/3.18.154.7 Safari/537.36" etag="pUQoKMnp4nyGB2y6AvTX" version="20.7.4" type="github">
  <diagram name="Page-1" id="6133507b-19e7-1e82-6fc7-422aa6c4b21f">
    <mxGraphModel dx="1388" dy="1615" grid="1" gridSize="10" guides="1" tooltips="1" connect="1" arrows="1" fold="1" page="1" pageScale="1" pageWidth="1100" pageHeight="850" background="none" math="0" shadow="0">
      <root>
        <mxCell id="0" />
        <mxCell id="1" parent="0" />
        <mxCell id="b94bc138ca980ef-13" style="edgeStyle=orthogonalEdgeStyle;rounded=0;html=1;labelBackgroundColor=none;startArrow=none;startFill=0;startSize=8;endArrow=open;endFill=0;endSize=16;fontFamily=Verdana;fontSize=12;entryX=0.479;entryY=1.075;entryDx=0;entryDy=0;entryPerimeter=0;" parent="1" target="78961159f06e98e8-27" edge="1">
          <mxGeometry relative="1" as="geometry">
            <Array as="points">
              <mxPoint x="175" y="434" />
            </Array>
            <mxPoint x="170" y="434" as="sourcePoint" />
          </mxGeometry>
        </mxCell>
        <mxCell id="235556782a83e6d0-1" value="BallComponent" style="swimlane;html=1;fontStyle=1;align=center;verticalAlign=top;childLayout=stackLayout;horizontal=1;startSize=26;horizontalStack=0;resizeParent=1;resizeLast=0;collapsible=1;marginBottom=0;swimlaneFillColor=#ffffff;rounded=0;shadow=0;comic=0;labelBackgroundColor=none;strokeWidth=1;fillColor=none;fontFamily=Verdana;fontSize=12" parent="1" vertex="1">
          <mxGeometry x="35" y="436" width="310" height="168" as="geometry" />
        </mxCell>
        <mxCell id="235556782a83e6d0-2" value="-" style="text;html=1;strokeColor=none;fillColor=none;align=left;verticalAlign=top;spacingLeft=4;spacingRight=4;whiteSpace=wrap;overflow=hidden;rotatable=0;points=[[0,0.5],[1,0.5]];portConstraint=eastwest;" parent="235556782a83e6d0-1" vertex="1">
          <mxGeometry y="26" width="310" height="26" as="geometry" />
        </mxCell>
        <mxCell id="235556782a83e6d0-6" value="" style="line;html=1;strokeWidth=1;fillColor=none;align=left;verticalAlign=middle;spacingTop=-1;spacingLeft=3;spacingRight=3;rotatable=0;labelPosition=right;points=[];portConstraint=eastwest;" parent="235556782a83e6d0-1" vertex="1">
          <mxGeometry y="52" width="310" height="8" as="geometry" />
        </mxCell>
        <mxCell id="235556782a83e6d0-7" value="+ Collision&lt;span style=&quot;color: rgb(36, 41, 47); font-family: ui-monospace, SFMono-Regular, &amp;quot;SF Mono&amp;quot;, Menlo, Consolas, &amp;quot;Liberation Mono&amp;quot;, monospace; background-color: rgb(255, 255, 255);&quot;&gt;Event&lt;/span&gt;(Player)" style="text;html=1;strokeColor=none;fillColor=none;align=left;verticalAlign=top;spacingLeft=4;spacingRight=4;whiteSpace=wrap;overflow=hidden;rotatable=0;points=[[0,0.5],[1,0.5]];portConstraint=eastwest;" parent="235556782a83e6d0-1" vertex="1">
          <mxGeometry y="60" width="310" height="48" as="geometry" />
        </mxCell>
        <mxCell id="78961159f06e98e8-17" value="BakGamePlayerComponent" style="swimlane;html=1;fontStyle=1;align=center;verticalAlign=top;childLayout=stackLayout;horizontal=1;startSize=26;horizontalStack=0;resizeParent=1;resizeLast=0;collapsible=1;marginBottom=0;swimlaneFillColor=#ffffff;rounded=0;shadow=0;comic=0;labelBackgroundColor=none;strokeWidth=1;fillColor=none;fontFamily=Verdana;fontSize=12" parent="1" vertex="1">
          <mxGeometry x="60" y="80" width="240" height="118" as="geometry" />
        </mxCell>
        <mxCell id="78961159f06e98e8-23" value="+ CanAttack : Boolean&lt;br&gt;+ Team : String" style="text;html=1;strokeColor=none;fillColor=none;align=left;verticalAlign=top;spacingLeft=4;spacingRight=4;whiteSpace=wrap;overflow=hidden;rotatable=0;points=[[0,0.5],[1,0.5]];portConstraint=eastwest;" parent="78961159f06e98e8-17" vertex="1">
          <mxGeometry y="26" width="240" height="44" as="geometry" />
        </mxCell>
        <mxCell id="78961159f06e98e8-19" value="" style="line;html=1;strokeWidth=1;fillColor=none;align=left;verticalAlign=middle;spacingTop=-1;spacingLeft=3;spacingRight=3;rotatable=0;labelPosition=right;points=[];portConstraint=eastwest;" parent="78961159f06e98e8-17" vertex="1">
          <mxGeometry y="70" width="240" height="8" as="geometry" />
        </mxCell>
        <mxCell id="78961159f06e98e8-27" value="+ ActionEvent(&lt;span style=&quot;color: rgb(36, 41, 47); font-family: ui-monospace, SFMono-Regular, &amp;quot;SF Mono&amp;quot;, Menlo, Consolas, &amp;quot;Liberation Mono&amp;quot;, monospace; background-color: rgb(255, 255, 255);&quot;&gt;event.&lt;/span&gt;&lt;span style=&quot;box-sizing: border-box; color: rgb(36, 41, 47); font-family: ui-monospace, SFMono-Regular, &amp;quot;SF Mono&amp;quot;, Menlo, Consolas, &amp;quot;Liberation Mono&amp;quot;, monospace; background-color: rgb(255, 255, 255);&quot; class=&quot;pl-smi&quot;&gt;ActionName&lt;/span&gt;)" style="text;html=1;strokeColor=none;fillColor=none;align=left;verticalAlign=top;spacingLeft=4;spacingRight=4;whiteSpace=wrap;overflow=hidden;rotatable=0;points=[[0,0.5],[1,0.5]];portConstraint=eastwest;" parent="78961159f06e98e8-17" vertex="1">
          <mxGeometry y="78" width="240" height="40" as="geometry" />
        </mxCell>
        <mxCell id="b94bc138ca980ef-7" style="rounded=0;html=1;labelBackgroundColor=none;startArrow=none;startFill=0;startSize=8;endArrow=open;endFill=0;endSize=16;fontFamily=Verdana;fontSize=12;exitX=1.008;exitY=0.46;exitDx=0;exitDy=0;exitPerimeter=0;entryX=-0.003;entryY=0.343;entryDx=0;entryDy=0;entryPerimeter=0;" parent="1" source="b94bc138ca980ef-1" target="78961159f06e98e8-52" edge="1">
          <mxGeometry relative="1" as="geometry">
            <mxPoint x="840" y="340" as="targetPoint" />
          </mxGeometry>
        </mxCell>
        <mxCell id="b94bc138ca980ef-18" value="1" style="text;html=1;resizable=0;points=[];align=center;verticalAlign=middle;labelBackgroundColor=#ffffff;fontSize=12;fontFamily=Verdana" parent="b94bc138ca980ef-7" vertex="1" connectable="0">
          <mxGeometry x="0.3629" y="152" relative="1" as="geometry">
            <mxPoint x="150" y="-164" as="offset" />
          </mxGeometry>
        </mxCell>
        <mxCell id="78961159f06e98e8-43" value="Bak" style="swimlane;html=1;fontStyle=1;align=center;verticalAlign=top;childLayout=stackLayout;horizontal=1;startSize=26;horizontalStack=0;resizeParent=1;resizeLast=0;collapsible=1;marginBottom=0;swimlaneFillColor=#ffffff;rounded=0;shadow=0;comic=0;labelBackgroundColor=none;strokeWidth=1;fillColor=none;fontFamily=Verdana;fontSize=12" parent="1" vertex="1">
          <mxGeometry x="920" y="38.99999999999997" width="350" height="164" as="geometry" />
        </mxCell>
        <mxCell id="78961159f06e98e8-44" value="+ HP: Number" style="text;html=1;strokeColor=none;fillColor=none;align=left;verticalAlign=top;spacingLeft=4;spacingRight=4;whiteSpace=wrap;overflow=hidden;rotatable=0;points=[[0,0.5],[1,0.5]];portConstraint=eastwest;" parent="78961159f06e98e8-43" vertex="1">
          <mxGeometry y="26" width="350" height="26" as="geometry" />
        </mxCell>
        <mxCell id="78961159f06e98e8-51" value="" style="line;html=1;strokeWidth=1;fillColor=none;align=left;verticalAlign=middle;spacingTop=-1;spacingLeft=3;spacingRight=3;rotatable=0;labelPosition=right;points=[];portConstraint=eastwest;" parent="78961159f06e98e8-43" vertex="1">
          <mxGeometry y="52" width="350" height="8" as="geometry" />
        </mxCell>
        <mxCell id="78961159f06e98e8-52" value="+ Collision&lt;span style=&quot;color: rgb(36, 41, 47); font-family: ui-monospace, SFMono-Regular, &amp;quot;SF Mono&amp;quot;, Menlo, Consolas, &amp;quot;Liberation Mono&amp;quot;, monospace; background-color: rgb(255, 255, 255);&quot;&gt;Event&lt;/span&gt;(&lt;font face=&quot;ui-monospace, SFMono-Regular, SF Mono, Menlo, Consolas, Liberation Mono, monospace&quot; color=&quot;#24292f&quot;&gt;&lt;span style=&quot;background-color: rgb(255, 255, 255);&quot;&gt;Entity AttakcBall&lt;/span&gt;&lt;/font&gt;):&lt;br&gt;+ Bak HP decrease()&lt;br&gt;+ MinigameEnd()" style="text;html=1;strokeColor=none;fillColor=none;align=left;verticalAlign=top;spacingLeft=4;spacingRight=4;whiteSpace=wrap;overflow=hidden;rotatable=0;points=[[0,0.5],[1,0.5]];portConstraint=eastwest;" parent="78961159f06e98e8-43" vertex="1">
          <mxGeometry y="60" width="350" height="70" as="geometry" />
        </mxCell>
        <mxCell id="b94bc138ca980ef-12" style="edgeStyle=orthogonalEdgeStyle;rounded=0;html=1;labelBackgroundColor=none;startArrow=none;startFill=0;startSize=8;endArrow=open;endFill=0;endSize=16;fontFamily=Verdana;fontSize=12;entryX=0.5;entryY=1;entryDx=0;entryDy=0;exitX=0.542;exitY=1.027;exitDx=0;exitDy=0;exitPerimeter=0;" parent="1" source="AzYQ8KStDOYGmMoPH-ec-2" target="235556782a83e6d0-1" edge="1">
          <mxGeometry relative="1" as="geometry">
            <Array as="points">
              <mxPoint x="581" y="680" />
              <mxPoint x="190" y="680" />
            </Array>
          </mxGeometry>
        </mxCell>
        <mxCell id="78961159f06e98e8-69" value="BallGeneratorComponent" style="swimlane;html=1;fontStyle=1;align=center;verticalAlign=top;childLayout=stackLayout;horizontal=1;startSize=26;horizontalStack=0;resizeParent=1;resizeLast=0;collapsible=1;marginBottom=0;swimlaneFillColor=#ffffff;rounded=0;shadow=0;comic=0;labelBackgroundColor=none;strokeWidth=1;fillColor=none;fontFamily=Verdana;fontSize=12" parent="1" vertex="1">
          <mxGeometry x="440" y="428" width="260" height="184" as="geometry" />
        </mxCell>
        <mxCell id="78961159f06e98e8-70" value="+&amp;nbsp;&lt;span style=&quot;color: rgb(36, 41, 47); font-family: ui-monospace, SFMono-Regular, &amp;quot;SF Mono&amp;quot;, Menlo, Consolas, &amp;quot;Liberation Mono&amp;quot;, monospace; background-color: rgb(255, 255, 255);&quot;&gt;ballNum &lt;/span&gt;: Number&lt;br&gt;+&amp;nbsp;&lt;span style=&quot;color: rgb(36, 41, 47); font-family: ui-monospace, SFMono-Regular, &amp;quot;SF Mono&amp;quot;, Menlo, Consolas, &amp;quot;Liberation Mono&amp;quot;, monospace; background-color: rgb(255, 255, 255);&quot;&gt;ballMaxNum : Number&lt;br&gt;+&amp;nbsp;&lt;/span&gt;&lt;span style=&quot;color: rgb(36, 41, 47); font-family: ui-monospace, SFMono-Regular, &amp;quot;SF Mono&amp;quot;, Menlo, Consolas, &amp;quot;Liberation Mono&amp;quot;, monospace; background-color: rgb(255, 255, 255);&quot;&gt;spawnDuration : Number&lt;br&gt;&lt;/span&gt;&lt;span style=&quot;color: rgb(36, 41, 47); font-family: ui-monospace, SFMono-Regular, &amp;quot;SF Mono&amp;quot;, Menlo, Consolas, &amp;quot;Liberation Mono&amp;quot;, monospace; background-color: rgb(255, 255, 255);&quot;&gt;+ time : Number&lt;br&gt;&lt;br&gt;&lt;/span&gt;" style="text;html=1;strokeColor=none;fillColor=none;align=left;verticalAlign=top;spacingLeft=4;spacingRight=4;whiteSpace=wrap;overflow=hidden;rotatable=0;points=[[0,0.5],[1,0.5]];portConstraint=eastwest;" parent="78961159f06e98e8-69" vertex="1">
          <mxGeometry y="26" width="260" height="74" as="geometry" />
        </mxCell>
        <mxCell id="78961159f06e98e8-77" value="" style="line;html=1;strokeWidth=1;fillColor=none;align=left;verticalAlign=middle;spacingTop=-1;spacingLeft=3;spacingRight=3;rotatable=0;labelPosition=right;points=[];portConstraint=eastwest;" parent="78961159f06e98e8-69" vertex="1">
          <mxGeometry y="100" width="260" height="10" as="geometry" />
        </mxCell>
        <mxCell id="AzYQ8KStDOYGmMoPH-ec-2" value="&lt;span style=&quot;color: rgb(36, 41, 47); font-family: ui-monospace, SFMono-Regular, &amp;quot;SF Mono&amp;quot;, Menlo, Consolas, &amp;quot;Liberation Mono&amp;quot;, monospace; background-color: rgb(255, 255, 255);&quot;&gt;+ BallGenerate()&lt;br&gt;&lt;/span&gt;" style="text;html=1;strokeColor=none;fillColor=none;align=left;verticalAlign=top;spacingLeft=4;spacingRight=4;whiteSpace=wrap;overflow=hidden;rotatable=0;points=[[0,0.5],[1,0.5]];portConstraint=eastwest;" parent="78961159f06e98e8-69" vertex="1">
          <mxGeometry y="110" width="260" height="74" as="geometry" />
        </mxCell>
        <mxCell id="b94bc138ca980ef-1" value="&lt;p style=&quot;margin:0px;margin-top:4px;text-align:center;&quot;&gt;&lt;i&gt;AttackBallComponent&lt;/i&gt;&lt;/p&gt;&lt;hr size=&quot;1&quot;&gt;&lt;p style=&quot;margin:0px;margin-left:4px;&quot;&gt;+ Team: String&lt;br&gt;&lt;br&gt;&lt;/p&gt;&lt;hr size=&quot;1&quot;&gt;&lt;p style=&quot;margin:0px;margin-left:4px;&quot;&gt;+&amp;nbsp;&lt;span style=&quot;color: rgb(36, 41, 47); font-family: ui-monospace, SFMono-Regular, &amp;quot;SF Mono&amp;quot;, Menlo, Consolas, &amp;quot;Liberation Mono&amp;quot;, monospace; background-color: rgb(255, 255, 255);&quot;&gt;FootholdCollisionEvent&lt;/span&gt;()&lt;/p&gt;&lt;p style=&quot;margin:0px;margin-left:4px;&quot;&gt;+ Destroy()&lt;/p&gt;&lt;p style=&quot;margin:0px;margin-left:4px;&quot;&gt;+ Rotate()&lt;/p&gt;" style="verticalAlign=top;align=left;overflow=fill;fontSize=12;fontFamily=Helvetica;html=1;rounded=0;shadow=0;comic=0;labelBackgroundColor=none;strokeWidth=1" parent="1" vertex="1">
          <mxGeometry x="510" y="53" width="250" height="150" as="geometry" />
        </mxCell>
        <mxCell id="McfUBQK_vK9CLQ7w-X-Y-1" style="edgeStyle=none;rounded=0;orthogonalLoop=1;jettySize=auto;html=1;entryX=0;entryY=0.5;entryDx=0;entryDy=0;exitX=1;exitY=0.5;exitDx=0;exitDy=0;dashed=1;" edge="1" parent="1" source="78961159f06e98e8-23" target="b94bc138ca980ef-1">
          <mxGeometry relative="1" as="geometry" />
        </mxCell>
        <mxCell id="McfUBQK_vK9CLQ7w-X-Y-3" value="&lt;font style=&quot;font-size: 19px;&quot;&gt;공 생성&lt;/font&gt;" style="text;html=1;align=center;verticalAlign=middle;resizable=0;points=[];autosize=1;strokeColor=none;fillColor=none;" vertex="1" parent="1">
          <mxGeometry x="345" y="635" width="90" height="40" as="geometry" />
        </mxCell>
        <mxCell id="McfUBQK_vK9CLQ7w-X-Y-4" value="충돌" style="text;html=1;align=center;verticalAlign=middle;resizable=0;points=[];autosize=1;strokeColor=none;fillColor=none;fontSize=19;" vertex="1" parent="1">
          <mxGeometry x="180" y="320" width="60" height="40" as="geometry" />
        </mxCell>
        <mxCell id="McfUBQK_vK9CLQ7w-X-Y-5" value="생성" style="text;html=1;align=center;verticalAlign=middle;resizable=0;points=[];autosize=1;strokeColor=none;fillColor=none;fontSize=19;" vertex="1" parent="1">
          <mxGeometry x="370" y="80" width="60" height="40" as="geometry" />
        </mxCell>
        <mxCell id="McfUBQK_vK9CLQ7w-X-Y-6" value="충돌" style="text;html=1;align=center;verticalAlign=middle;resizable=0;points=[];autosize=1;strokeColor=none;fillColor=none;fontSize=19;" vertex="1" parent="1">
          <mxGeometry x="820" y="70" width="60" height="40" as="geometry" />
        </mxCell>
      </root>
    </mxGraphModel>
  </diagram>
</mxfile>
